<svg width="16" height="16" fill="none" xmlns="http://www.w3.org/2000/svg"><path d="M3.5 11a1.505 1.505 0 011.383.914c.078.182.117.378.117.586a1.505 1.505 0 01-.914 1.383A1.472 1.472 0 013.5 14a1.505 1.505 0 01-1.383-.914A1.471 1.471 0 012 12.5a1.505 1.505 0 01.914-1.383c.182-.078.378-.117.586-.117zm0 2a.48.48 0 00.352-.148A.48.48 0 004 12.5a.48.48 0 00-.148-.352A.48.48 0 003.5 12a.48.48 0 00-.352.148A.48.48 0 003 12.5c0 .135.05.253.148.352A.48.48 0 003.5 13zM1 14a.941.941 0 01.703.297A.941.941 0 012 15a.97.97 0 01-.078.39 1.03 1.03 0 01-.531.532A.969.969 0 011 16a.969.969 0 01-.39-.078 1.103 1.103 0 01-.32-.211 1.103 1.103 0 01-.212-.32A.969.969 0 010 15a.969.969 0 01.29-.703A.969.969 0 011 14zM11.5 1c.62 0 1.203.12 1.75.36a4.515 4.515 0 011.43.96c.406.407.726.883.96 1.43.24.547.36 1.13.36 1.75 0 .62-.12 1.203-.36 1.75a4.516 4.516 0 01-2.39 2.398A4.395 4.395 0 0111.5 10h-.18a4.452 4.452 0 01-2.82 1c-.38 0-.75-.044-1.11-.133a4.738 4.738 0 01-1.015-.398 4.738 4.738 0 01-.89-.625A4.924 4.924 0 014.757 9H4.5a3.45 3.45 0 01-1.367-.273 3.537 3.537 0 01-1.86-1.86A3.446 3.446 0 011 5.5a3.513 3.513 0 012.133-3.227A3.446 3.446 0 014.5 2h.54c.176-.307.39-.583.64-.828A3.97 3.97 0 018.5 0c.49 0 .96.086 1.414.258.458.172.867.42 1.227.742h.359zm0 8a3.39 3.39 0 001.36-.273 3.596 3.596 0 001.109-.75A3.532 3.532 0 0015 5.5a3.31 3.31 0 00-.281-1.36 3.422 3.422 0 00-.75-1.109 3.423 3.423 0 00-1.11-.75A3.31 3.31 0 0011.5 2h-.758a3.976 3.976 0 00-1.023-.734C9.369 1.089 8.964 1 8.5 1a2.9 2.9 0 00-.945.148c-.287.094-.547.23-.782.407a3.31 3.31 0 00-.632.633A4.785 4.785 0 005.656 3H4.5a2.535 2.535 0 00-1.773.742 2.507 2.507 0 00-.532.79c-.13.3-.195.623-.195.968s.065.67.195.977c.13.302.308.567.532.796.229.224.494.401.796.532.308.13.633.195.977.195h.828c.162.302.352.578.57.828.22.245.464.456.735.633A3.436 3.436 0 008.5 10a3.39 3.39 0 001.32-.259c.412-.177.79-.424 1.133-.742h.547z" fill="#101010"/></svg>